<mxfile host="Electron" modified="2024-05-18T00:06:13.974Z" agent="Mozilla/5.0 (Windows NT 10.0; Win64; x64) AppleWebKit/537.36 (KHTML, like Gecko) draw.io/24.4.0 Chrome/120.0.6099.109 Electron/28.1.0 Safari/537.36" etag="XrDS-WY0b_96Ea5ujeAM" version="24.4.0" type="device">
  <diagram name="Page-1" id="21WPPaadFFxv-56drkyv">
    <mxGraphModel dx="3595" dy="1098" grid="1" gridSize="10" guides="1" tooltips="1" connect="1" arrows="1" fold="1" page="1" pageScale="1" pageWidth="850" pageHeight="1100" math="0" shadow="0">
      <root>
        <mxCell id="0" />
        <mxCell id="1" parent="0" />
        <mxCell id="bFvIGrUSCuhnHJkHdX6X-1" value="Script.js" style="swimlane;startSize=20;horizontal=1;containerType=tree;" parent="1" vertex="1">
          <mxGeometry x="-830" y="120" width="240" height="470" as="geometry">
            <mxRectangle x="-130" y="120" width="80" height="30" as="alternateBounds" />
          </mxGeometry>
        </mxCell>
        <mxCell id="bFvIGrUSCuhnHJkHdX6X-7" value="start()" style="rounded=0;whiteSpace=wrap;html=1;fillColor=#008a00;strokeColor=#005700;fontColor=#ffffff;opacity=50;" parent="bFvIGrUSCuhnHJkHdX6X-1" vertex="1">
          <mxGeometry x="60" y="370" width="120" height="60" as="geometry" />
        </mxCell>
        <mxCell id="bFvIGrUSCuhnHJkHdX6X-8" value="frozenVanilla()" style="rounded=0;whiteSpace=wrap;html=1;fillColor=#dae8fc;strokeColor=#6c8ebf;opacity=50;" parent="bFvIGrUSCuhnHJkHdX6X-1" vertex="1">
          <mxGeometry x="60" y="70" width="120" height="60" as="geometry" />
        </mxCell>
        <mxCell id="bFvIGrUSCuhnHJkHdX6X-9" value="isFrozen()" style="rounded=0;whiteSpace=wrap;html=1;fillColor=#d5e8d4;strokeColor=#82b366;opacity=50;" parent="bFvIGrUSCuhnHJkHdX6X-1" vertex="1">
          <mxGeometry x="60" y="140" width="120" height="60" as="geometry" />
        </mxCell>
        <mxCell id="bFvIGrUSCuhnHJkHdX6X-10" value="nonce()" style="rounded=0;whiteSpace=wrap;html=1;fillColor=#d5e8d4;strokeColor=#82b366;opacity=50;" parent="bFvIGrUSCuhnHJkHdX6X-1" vertex="1">
          <mxGeometry x="60" y="220" width="120" height="60" as="geometry" />
        </mxCell>
        <mxCell id="bFvIGrUSCuhnHJkHdX6X-11" value="nonceBack()" style="rounded=0;whiteSpace=wrap;html=1;fillColor=#dae8fc;strokeColor=#6c8ebf;opacity=50;" parent="bFvIGrUSCuhnHJkHdX6X-1" vertex="1">
          <mxGeometry x="60" y="290" width="120" height="60" as="geometry" />
        </mxCell>
        <mxCell id="bFvIGrUSCuhnHJkHdX6X-12" value="vanillaApp,js" style="swimlane;startSize=20;horizontal=1;containerType=tree;" parent="1" vertex="1">
          <mxGeometry x="-520" y="120" width="222" height="470" as="geometry">
            <mxRectangle x="-130" y="120" width="80" height="30" as="alternateBounds" />
          </mxGeometry>
        </mxCell>
        <mxCell id="bFvIGrUSCuhnHJkHdX6X-13" value="vanillaApp()" style="rounded=0;whiteSpace=wrap;html=1;fillColor=#008a00;strokeColor=#005700;fontColor=#ffffff;opacity=50;" parent="bFvIGrUSCuhnHJkHdX6X-12" vertex="1">
          <mxGeometry x="51" y="370" width="120" height="60" as="geometry" />
        </mxCell>
        <mxCell id="bFvIGrUSCuhnHJkHdX6X-14" value="loadInitialScripts()" style="rounded=0;whiteSpace=wrap;html=1;fillColor=#dae8fc;strokeColor=#6c8ebf;opacity=50;" parent="bFvIGrUSCuhnHJkHdX6X-12" vertex="1">
          <mxGeometry x="51" y="60" width="120" height="60" as="geometry" />
        </mxCell>
        <mxCell id="bFvIGrUSCuhnHJkHdX6X-15" value="promiseSchemaParts" style="rounded=0;whiteSpace=wrap;html=1;fillColor=#d5e8d4;strokeColor=#82b366;opacity=50;" parent="bFvIGrUSCuhnHJkHdX6X-12" vertex="1">
          <mxGeometry x="51" y="160" width="120" height="60" as="geometry" />
        </mxCell>
        <mxCell id="bFvIGrUSCuhnHJkHdX6X-16" value="promiseRouteAndStateLoad" style="rounded=0;whiteSpace=wrap;html=1;fillColor=#d5e8d4;strokeColor=#82b366;opacity=50;" parent="bFvIGrUSCuhnHJkHdX6X-12" vertex="1">
          <mxGeometry x="22.5" y="260" width="177" height="60" as="geometry" />
        </mxCell>
        <mxCell id="3D-MbJX967UloMaSZjOJ-3" value="" style="endArrow=none;html=1;rounded=0;exitX=0.5;exitY=1;exitDx=0;exitDy=0;entryX=0.5;entryY=0;entryDx=0;entryDy=0;" edge="1" parent="bFvIGrUSCuhnHJkHdX6X-12" source="bFvIGrUSCuhnHJkHdX6X-14" target="bFvIGrUSCuhnHJkHdX6X-15">
          <mxGeometry relative="1" as="geometry">
            <mxPoint x="250" y="160" as="sourcePoint" />
            <mxPoint x="190" y="260" as="targetPoint" />
          </mxGeometry>
        </mxCell>
        <mxCell id="3D-MbJX967UloMaSZjOJ-4" value="Promise&amp;nbsp;" style="resizable=0;html=1;whiteSpace=wrap;align=right;verticalAlign=bottom;" connectable="0" vertex="1" parent="3D-MbJX967UloMaSZjOJ-3">
          <mxGeometry x="1" relative="1" as="geometry" />
        </mxCell>
        <mxCell id="3D-MbJX967UloMaSZjOJ-5" value="" style="endArrow=none;html=1;rounded=0;exitX=0.5;exitY=1;exitDx=0;exitDy=0;entryX=0.5;entryY=0;entryDx=0;entryDy=0;" edge="1" parent="bFvIGrUSCuhnHJkHdX6X-12" source="bFvIGrUSCuhnHJkHdX6X-15" target="bFvIGrUSCuhnHJkHdX6X-16">
          <mxGeometry relative="1" as="geometry">
            <mxPoint x="250" y="160" as="sourcePoint" />
            <mxPoint x="410" y="160" as="targetPoint" />
          </mxGeometry>
        </mxCell>
        <mxCell id="3D-MbJX967UloMaSZjOJ-6" value="Promise&amp;nbsp;" style="resizable=0;html=1;whiteSpace=wrap;align=right;verticalAlign=bottom;" connectable="0" vertex="1" parent="3D-MbJX967UloMaSZjOJ-5">
          <mxGeometry x="1" relative="1" as="geometry" />
        </mxCell>
        <mxCell id="3D-MbJX967UloMaSZjOJ-10" value="" style="endArrow=classic;html=1;rounded=0;exitX=0.5;exitY=0;exitDx=0;exitDy=0;entryX=0.5;entryY=0;entryDx=0;entryDy=0;" edge="1" parent="bFvIGrUSCuhnHJkHdX6X-12" source="bFvIGrUSCuhnHJkHdX6X-13" target="bFvIGrUSCuhnHJkHdX6X-14">
          <mxGeometry width="50" height="50" relative="1" as="geometry">
            <mxPoint x="300" y="190" as="sourcePoint" />
            <mxPoint x="110" y="30" as="targetPoint" />
            <Array as="points">
              <mxPoint x="110" y="340" />
              <mxPoint x="-30" y="340" />
              <mxPoint x="-30" y="30" />
              <mxPoint x="110" y="30" />
            </Array>
          </mxGeometry>
        </mxCell>
        <mxCell id="3D-MbJX967UloMaSZjOJ-1" value="" style="endArrow=classic;html=1;rounded=0;exitX=1;exitY=0.5;exitDx=0;exitDy=0;entryX=0;entryY=0.5;entryDx=0;entryDy=0;" edge="1" parent="1" source="bFvIGrUSCuhnHJkHdX6X-7" target="bFvIGrUSCuhnHJkHdX6X-13">
          <mxGeometry width="50" height="50" relative="1" as="geometry">
            <mxPoint x="-220" y="310" as="sourcePoint" />
            <mxPoint x="-170" y="260" as="targetPoint" />
          </mxGeometry>
        </mxCell>
        <mxCell id="3D-MbJX967UloMaSZjOJ-11" value="routes.js" style="swimlane;startSize=20;horizontal=1;containerType=tree;" vertex="1" parent="1">
          <mxGeometry x="-180" y="120" width="222" height="350" as="geometry">
            <mxRectangle x="-130" y="120" width="80" height="30" as="alternateBounds" />
          </mxGeometry>
        </mxCell>
        <mxCell id="3D-MbJX967UloMaSZjOJ-23" value="buildStatePath" style="rounded=0;whiteSpace=wrap;html=1;fillColor=#dae8fc;strokeColor=#6c8ebf;opacity=50;" vertex="1" parent="3D-MbJX967UloMaSZjOJ-11">
          <mxGeometry x="51" y="150" width="120" height="60" as="geometry" />
        </mxCell>
        <mxCell id="3D-MbJX967UloMaSZjOJ-26" value="getRoute()" style="rounded=0;whiteSpace=wrap;html=1;fillColor=#dae8fc;strokeColor=#6c8ebf;opacity=50;" vertex="1" parent="3D-MbJX967UloMaSZjOJ-11">
          <mxGeometry x="51" y="70" width="120" height="60" as="geometry" />
        </mxCell>
        <mxCell id="3D-MbJX967UloMaSZjOJ-30" value="vanillaBurst()" style="shape=callout;whiteSpace=wrap;html=1;perimeter=calloutPerimeter;position2=0.49;base=20;size=30;position=0.41;" vertex="1" parent="3D-MbJX967UloMaSZjOJ-11">
          <mxGeometry x="51" y="230" width="120" height="80" as="geometry" />
        </mxCell>
        <mxCell id="3D-MbJX967UloMaSZjOJ-24" style="edgeStyle=orthogonalEdgeStyle;rounded=0;orthogonalLoop=1;jettySize=auto;html=1;exitX=1;exitY=0.5;exitDx=0;exitDy=0;entryX=-0.016;entryY=0.022;entryDx=0;entryDy=0;entryPerimeter=0;" edge="1" parent="1" source="bFvIGrUSCuhnHJkHdX6X-16" target="3D-MbJX967UloMaSZjOJ-11">
          <mxGeometry relative="1" as="geometry">
            <mxPoint x="-240" y="120" as="targetPoint" />
            <Array as="points">
              <mxPoint x="-240" y="410" />
              <mxPoint x="-240" y="128" />
              <mxPoint x="-184" y="128" />
            </Array>
          </mxGeometry>
        </mxCell>
        <mxCell id="3D-MbJX967UloMaSZjOJ-25" value="Load File" style="edgeLabel;html=1;align=center;verticalAlign=middle;resizable=0;points=[];" vertex="1" connectable="0" parent="3D-MbJX967UloMaSZjOJ-24">
          <mxGeometry x="0.3411" y="3" relative="1" as="geometry">
            <mxPoint y="59" as="offset" />
          </mxGeometry>
        </mxCell>
        <mxCell id="3D-MbJX967UloMaSZjOJ-27" value="vanillaBurst.js" style="swimlane;startSize=20;horizontal=1;containerType=tree;" vertex="1" parent="1">
          <mxGeometry x="-180" y="500" width="222" height="280" as="geometry">
            <mxRectangle x="-130" y="120" width="80" height="30" as="alternateBounds" />
          </mxGeometry>
        </mxCell>
        <mxCell id="3D-MbJX967UloMaSZjOJ-28" value="buildStatePath" style="rounded=0;whiteSpace=wrap;html=1;fillColor=#dae8fc;strokeColor=#6c8ebf;opacity=50;" vertex="1" parent="3D-MbJX967UloMaSZjOJ-27">
          <mxGeometry x="51" y="150" width="120" height="60" as="geometry" />
        </mxCell>
        <mxCell id="3D-MbJX967UloMaSZjOJ-29" value="vanillaBurst()" style="rounded=0;whiteSpace=wrap;html=1;fillColor=#dae8fc;strokeColor=#6c8ebf;opacity=50;" vertex="1" parent="3D-MbJX967UloMaSZjOJ-27">
          <mxGeometry x="51" y="70" width="120" height="60" as="geometry" />
        </mxCell>
        <mxCell id="3D-MbJX967UloMaSZjOJ-31" value="" style="endArrow=none;html=1;rounded=0;entryX=0.5;entryY=0;entryDx=0;entryDy=0;exitX=0;exitY=0;exitDx=120;exitDy=25;exitPerimeter=0;" edge="1" parent="1" source="3D-MbJX967UloMaSZjOJ-30" target="3D-MbJX967UloMaSZjOJ-29">
          <mxGeometry relative="1" as="geometry">
            <mxPoint x="-70" y="450" as="sourcePoint" />
            <mxPoint x="60" y="430" as="targetPoint" />
            <Array as="points">
              <mxPoint x="80" y="375" />
              <mxPoint x="80" y="540" />
              <mxPoint x="-70" y="540" />
            </Array>
          </mxGeometry>
        </mxCell>
        <mxCell id="3D-MbJX967UloMaSZjOJ-32" value="Calling&amp;nbsp;" style="resizable=0;html=1;whiteSpace=wrap;align=right;verticalAlign=bottom;" connectable="0" vertex="1" parent="3D-MbJX967UloMaSZjOJ-31">
          <mxGeometry x="1" relative="1" as="geometry" />
        </mxCell>
        <mxCell id="3D-MbJX967UloMaSZjOJ-37" value="Variable Packs" style="swimlane;fontStyle=0;childLayout=stackLayout;horizontal=1;startSize=30;horizontalStack=0;resizeParent=1;resizeParentMax=0;resizeLast=0;collapsible=1;marginBottom=0;whiteSpace=wrap;html=1;" vertex="1" parent="1">
          <mxGeometry x="480" y="120" width="140" height="120" as="geometry" />
        </mxCell>
        <mxCell id="3D-MbJX967UloMaSZjOJ-38" value="Item 1" style="text;strokeColor=none;fillColor=none;align=left;verticalAlign=middle;spacingLeft=4;spacingRight=4;overflow=hidden;points=[[0,0.5],[1,0.5]];portConstraint=eastwest;rotatable=0;whiteSpace=wrap;html=1;" vertex="1" parent="3D-MbJX967UloMaSZjOJ-37">
          <mxGeometry y="30" width="140" height="30" as="geometry" />
        </mxCell>
        <mxCell id="3D-MbJX967UloMaSZjOJ-39" value="Item 2" style="text;strokeColor=none;fillColor=none;align=left;verticalAlign=middle;spacingLeft=4;spacingRight=4;overflow=hidden;points=[[0,0.5],[1,0.5]];portConstraint=eastwest;rotatable=0;whiteSpace=wrap;html=1;" vertex="1" parent="3D-MbJX967UloMaSZjOJ-37">
          <mxGeometry y="60" width="140" height="30" as="geometry" />
        </mxCell>
        <mxCell id="3D-MbJX967UloMaSZjOJ-40" value="Item 3" style="text;strokeColor=none;fillColor=none;align=left;verticalAlign=middle;spacingLeft=4;spacingRight=4;overflow=hidden;points=[[0,0.5],[1,0.5]];portConstraint=eastwest;rotatable=0;whiteSpace=wrap;html=1;" vertex="1" parent="3D-MbJX967UloMaSZjOJ-37">
          <mxGeometry y="90" width="140" height="30" as="geometry" />
        </mxCell>
        <mxCell id="3D-MbJX967UloMaSZjOJ-42" value="Start" style="strokeWidth=2;html=1;shape=mxgraph.flowchart.start_2;whiteSpace=wrap;" vertex="1" parent="1">
          <mxGeometry x="-880" y="310" width="100" height="100" as="geometry" />
        </mxCell>
      </root>
    </mxGraphModel>
  </diagram>
</mxfile>
